<?xml version="1.0" encoding="UTF-8"?>
<svg width="13px" height="8px" viewBox="0 0 13 8" version="1.1" xmlns="http://www.w3.org/2000/svg" xmlns:xlink="http://www.w3.org/1999/xlink">
    <title>Fill 1</title>
    <g id="Page-1" stroke="none" stroke-width="1" fill="none" fill-rule="evenodd">
        <path d="M12.5324828,0.35309148 C12.3214414,0.130942166 12.0576501,0.0198721196 11.7410903,0.0198721196 C11.4245305,0.0198721196 11.1551829,0.130942166 10.9330382,0.35309148 L6.46791905,5.28471081 L2.00280452,0.35309148 C1.78065844,0.130942166 1.51130989,0.0198721196 1.19475195,0.0198721196 C0.878193562,0.0198721196 0.614398791,0.130942166 0.403359893,0.35309148 C0.181213715,0.575236183 0.0701422853,0.841807982 0.0701422853,1.15281149 C0.0701422853,1.463815 0.181213715,1.7303868 0.403359893,1.95253611 L5.60155609,7.70053854 C5.71262614,7.81161162 5.84591204,7.89491517 6.00141379,7.95045176 C6.15692016,8.00598829 6.3124173,8.02820258 6.46791905,8.01709527 C6.62342542,8.02820258 6.77892256,8.00598829 6.93442431,7.95045176 C7.08992606,7.89491517 7.22321196,7.81161162 7.33428662,7.70053854 L12.5324828,1.95253611 C12.7546275,1.7303868 12.8656976,1.463815 12.8656976,1.15281149 C12.8656976,0.841807982 12.7546275,0.575236183 12.5324828,0.35309148 Z" id="Fill-1" fill="#FFE7C9"></path>
    </g>
</svg>