<?xml version="1.0" encoding="UTF-8"?>
<svg width="14px" height="9px" viewBox="0 0 14 9" version="1.1" xmlns="http://www.w3.org/2000/svg" xmlns:xlink="http://www.w3.org/1999/xlink">
    <title>Fill 1</title>
    <g id="Page-1" stroke="none" stroke-width="1" fill="none" fill-rule="evenodd">
        <g id="mbiile-accueil" transform="translate(-326.000000, -40.000000)" fill="#FFE7C9">
            <path d="M338.790191,40.4096356 C338.579149,40.1874863 338.315358,40.0764163 337.998798,40.0764163 C337.682239,40.0764163 337.412891,40.1874863 337.190746,40.4096356 L332.725627,45.3412549 L328.260513,40.4096356 C328.038366,40.1874863 327.769018,40.0764163 327.45246,40.0764163 C327.135902,40.0764163 326.872107,40.1874863 326.661068,40.4096356 C326.438922,40.6317803 326.32785,40.8983521 326.32785,41.2093556 C326.32785,41.5203591 326.438922,41.7869309 326.661068,42.0090802 L331.859264,47.7570827 C331.970334,47.8681558 332.10362,47.9514593 332.259122,48.0069959 C332.414628,48.0625324 332.570125,48.0847467 332.725627,48.0736394 C332.881133,48.0847467 333.036631,48.0625324 333.192132,48.0069959 C333.347634,47.9514593 333.48092,47.8681558 333.591995,47.7570827 L338.790191,42.0090802 C339.012336,41.7869309 339.123406,41.5203591 339.123406,41.2093556 C339.123406,40.8983521 339.012336,40.6317803 338.790191,40.4096356 Z" id="Fill-1"></path>
        </g>
    </g>
</svg>