<?xml version="1.0" encoding="UTF-8"?>
<svg width="202px" height="51px" viewBox="0 0 202 51" version="1.1" xmlns="http://www.w3.org/2000/svg" xmlns:xlink="http://www.w3.org/1999/xlink">
    <title>Leamo-Logo-orange</title>
    <g id="Page-1" stroke="none" stroke-width="1" fill="none" fill-rule="evenodd">
        <g id="mbiile-accueil" transform="translate(-15.000000, -25.000000)" fill="#F04C22" fill-rule="nonzero">
            <g id="Leamo-Logo-orange" transform="translate(15.030079, 25.548631)">
                <path d="M176.832375,39.4436919 C175.503898,37.5113616 174.851737,34.6853286 174.851737,30.9897469 C174.851737,27.3424735 175.528052,24.5405946 176.880683,22.6324185 C178.233315,20.7242423 180.262261,19.7580772 183.015832,19.7580772 C185.745249,19.7580772 187.79835,20.7242423 189.150981,22.6324185 C190.503612,24.5405946 191.179928,27.3424735 191.179928,30.9897469 C191.179928,34.6370203 190.503612,37.4630534 189.150981,39.4195378 C187.79835,41.3760222 185.769403,42.3663415 183.015832,42.3663415 C180.213953,42.3421874 178.136698,41.3760222 176.832375,39.4436919 M190.455304,48.7188773 C192.701638,47.8493287 194.609814,46.593314 196.179832,44.9508332 C197.74985,43.3083525 198.957557,41.3035598 199.802951,38.9606094 C200.648346,36.6176589 201.058966,33.9365506 201.058966,30.9655928 C201.058966,28.0429433 200.648346,25.4101432 199.827106,23.0430386 C199.005865,20.7000882 197.798159,18.6952955 196.22814,17.0769689 C194.658122,15.4586423 192.749946,14.2026276 190.503612,13.333079 C188.257278,12.4635303 185.745249,12.028756 182.967524,12.028756 C180.238107,12.028756 177.726078,12.4635303 175.503898,13.333079 C173.257564,14.2026276 171.349388,15.4586423 169.77937,17.0769689 C168.209351,18.6952955 167.001645,20.675934 166.15625,23.0430386 C165.310856,25.3859891 164.900236,28.0429433 164.900236,30.9655928 C164.900236,37.0765873 166.470254,41.7866424 169.634445,45.0716039 C172.798636,48.3565654 177.242995,49.9990461 182.991678,49.9990461 C185.721094,50.0232002 188.233124,49.5884259 190.455304,48.7188773 M108.910966,48.9362645 L118.500155,48.9362645 L118.500155,27.4149359 C118.500155,26.3763084 118.693388,25.3859891 119.079854,24.4922864 C119.46632,23.5985836 119.973557,22.8256515 120.625718,22.1976441 C121.39865,21.424712 122.195736,20.8691671 122.992823,20.5551634 C123.789909,20.2411597 124.683612,20.0720808 125.625623,20.0720808 C126.229476,20.0720808 126.785021,20.1686973 127.340566,20.3377762 C127.896111,20.5310093 128.355039,20.8450129 128.741505,21.3039414 C129.127971,21.7628698 129.441975,22.3908772 129.659362,23.1879634 C129.876749,23.9850497 129.99752,25.0236772 129.99752,26.303846 L129.99752,48.9362645 L139.586709,48.9362645 L139.586709,27.0043157 C139.586709,26.0864588 139.779942,25.2169102 140.166408,24.3956698 C140.552874,23.5744295 141.060111,22.8498056 141.712272,22.1976441 C142.485204,21.424712 143.282291,20.8691671 144.079377,20.5551634 C144.876463,20.2411597 145.770166,20.0720808 146.712177,20.0720808 C147.31603,20.0720808 147.871575,20.1686973 148.42712,20.3377762 C148.982665,20.5310093 149.441593,20.8450129 149.828059,21.3039414 C150.214525,21.7628698 150.528529,22.3908772 150.745916,23.1879634 C150.963303,23.9850497 151.084074,25.0236772 151.084074,26.303846 L151.084074,48.9362645 L160.673263,48.9362645 L160.673263,25.0236772 C160.673263,20.4585469 159.755406,17.1494313 157.895538,15.1204845 C156.03567,13.0915377 153.257946,12.0770643 149.562364,12.0770643 C147.364338,12.0770643 145.359546,12.5601468 143.523832,13.526312 C141.688118,14.4924771 139.949021,16.0624955 138.30654,18.2605212 C137.630225,16.2557285 136.446672,14.7098643 134.804191,13.6712368 C133.161711,12.6326092 131.036147,12.1012184 128.427502,12.1012184 C126.471017,12.1012184 124.586995,12.584301 122.79959,13.5504661 C121.012184,14.5166313 119.46632,15.9900331 118.137843,17.9948258 L118.137843,13.1640001 L108.814349,13.1640001 L108.814349,48.9362645 L108.910966,48.9362645 Z M94.2494096,34.8060992 C94.2494096,36.2795011 93.9837142,37.4872075 93.4281692,38.4775268 C92.8726243,39.4678461 92.1721546,40.2649323 91.3026059,40.9170938 C89.7567417,42.0523378 87.7277949,42.6320369 85.2640738,42.6320369 C83.790672,42.6320369 82.6554279,42.2938791 81.8341875,41.5934094 C81.0129472,40.9170938 80.602327,39.9750828 80.602327,38.7915305 C80.602327,38.0185983 80.7230976,37.3181286 80.9404848,36.6659671 C81.1578719,36.0379598 81.6168004,35.4582607 82.2689619,34.9751781 C82.9211233,34.4920956 83.8872885,34.1056295 85.119149,33.7674717 C86.3510096,33.453468 87.9693362,33.2360809 89.9741289,33.1394644 L94.2252555,32.9220772 L94.2252555,34.8060992 L94.2494096,34.8060992 L94.2494096,34.8060992 Z M94.4426426,48.9362645 L103.500441,48.9362645 L103.500441,26.3280001 C103.500441,24.1299744 103.234745,22.1493359 102.703355,20.4102386 C102.171964,18.6469872 101.326569,17.1494313 100.167171,15.9175707 C99.0077729,14.6857102 97.4619087,13.7436991 95.5295784,13.0673835 C93.6214023,12.4152221 91.2784518,12.0770643 88.5490353,12.0770643 C84.0805215,12.0770643 80.5057105,12.9224588 77.8487563,14.5890936 C75.1918022,16.2557285 73.5493214,18.9609909 72.9213141,22.7048808 L81.6892628,23.5261212 C82.2448077,20.6517799 84.4186793,19.2025322 88.2108775,19.2025322 C89.8533582,19.2025322 91.2784518,19.6131524 92.4861582,20.4343928 C93.6938647,21.2556331 94.2977179,22.7531891 94.2977179,24.9512148 L94.2977179,26.7386203 L89.7084334,26.9560075 C87.4137912,27.052624 85.1674573,27.2700111 82.9694316,27.6323231 C80.7472518,27.994635 78.7666132,28.6226423 76.9792077,29.492191 C75.1918022,30.3617396 73.7667086,31.569446 72.6556187,33.1153102 C71.5686829,34.6611745 71.0131379,36.6901213 71.0131379,39.1538424 C71.0131379,41.0378644 71.3271416,42.6320369 71.9793031,43.9846681 C72.6073104,45.3372993 73.4768591,46.4483892 74.5396407,47.3179378 C75.6024224,48.1874865 76.8584371,48.8154938 78.3076848,49.226114 C79.7569325,49.6367342 81.2544885,49.8541213 82.8728151,49.8541213 C85.6505399,49.8541213 87.9210279,49.3468846 89.6842793,48.3565654 C91.4475307,47.342092 93.0417032,46.0619232 94.4426426,44.4435965 L94.4426426,48.9362645 L94.4426426,48.9362645 Z M44.0812846,27.0767781 C44.1295929,25.9898423 44.3228259,24.9753689 44.709292,24.0333579 C45.0716039,23.0913469 45.5788406,22.2701065 46.2551562,21.5696368 C46.9073177,20.8691671 47.728558,20.3136221 48.6947232,19.8788478 C49.6608883,19.4682276 50.7719782,19.2508405 52.052147,19.2508405 C54.6124847,19.2508405 56.4965067,19.9271561 57.7042131,21.3039414 C58.9119195,22.6807267 59.5157728,24.5889029 59.5157728,27.052624 L44.0812846,27.052624 L44.0812846,27.0767781 Z M59.0085361,37.7529029 C58.3322205,40.9412479 56.0858865,42.5595745 52.2936883,42.5595745 C49.5642718,42.5595745 47.4870167,41.7383341 46.1343855,40.1200075 C44.7576002,38.5016809 44.0329764,36.255347 43.9363598,33.3810057 L68.7426499,33.3810057 L68.7426499,29.5404992 C68.7426499,24.2024368 67.3658645,19.9513102 64.5881398,16.7871193 C61.8345691,13.6229285 57.7042131,12.0529101 52.2212259,12.0529101 C49.5642718,12.0529101 47.1488589,12.4876845 44.9508332,13.3089248 C42.7528075,14.1543193 40.8687855,15.410334 39.2987672,17.0528148 C37.7287488,18.6952955 36.4968882,20.7000882 35.6273396,23.0430386 C34.757791,25.3859891 34.3230167,28.0912515 34.3230167,31.0863634 C34.3230167,37.1248956 35.8205726,41.7866424 38.8156846,45.0716039 C41.8107965,48.3565654 46.2793103,49.9990461 52.2212259,49.9990461 C57.1486682,49.9990461 60.9167122,48.9604186 63.501204,46.8831635 C66.0856957,44.8059085 67.6798682,41.7624883 68.3320297,37.7287488 L59.0085361,37.7529029 L59.0085361,37.7529029 Z M0,48.9362645 L32.2699157,48.9362645 L33.3568515,40.1683158 L10.2171964,40.1683158 L10.2171964,-3.55271368e-15 L0,-3.55271368e-15 L0,48.9362645 Z" id="Shape"></path>
            </g>
        </g>
    </g>
</svg>