<?xml version="1.0" encoding="UTF-8"?>
<svg width="29px" height="29px" viewBox="0 0 29 29" version="1.1" xmlns="http://www.w3.org/2000/svg" xmlns:xlink="http://www.w3.org/1999/xlink">
    <title>Fill 1</title>
    <g id="Page-1" stroke="none" stroke-width="1" fill="none" fill-rule="evenodd">
        <g id="page-accueil" transform="translate(-433.000000, -5321.000000)" fill="#FFFFFF">
            <g id="footer" transform="translate(-3.500000, 5164.000000)">
                <path d="M450.813855,164.544919 C449.826215,164.544919 448.898825,164.725579 448.031625,165.086909 C447.164435,165.472329 446.411677,165.990229 445.773328,166.640619 C445.134978,167.291019 444.623102,168.037749 444.237683,168.880859 C443.876353,169.748049 443.695691,170.675449 443.695691,171.663079 C443.695691,172.650719 443.876353,173.578119 444.237683,174.445309 C444.623102,175.312499 445.134978,176.071283 445.773328,176.721677 C446.411677,177.372071 447.164435,177.877925 448.031625,178.239255 C448.898825,178.624674 449.826215,178.81738 450.813855,178.81738 L450.813855,178.81738 C451.801495,178.81738 452.728885,178.624674 453.596085,178.239255 C454.463275,177.877925 455.216035,177.372071 455.854385,176.721677 C456.492735,176.071283 457.004605,175.312499 457.390025,174.445309 C457.751355,173.578119 457.932015,172.650719 457.932015,171.663079 C457.932015,170.675449 457.751355,169.748049 457.390025,168.880859 C457.004605,168.037749 456.492735,167.291019 455.854385,166.640619 C455.216035,165.990229 454.463275,165.472329 453.596085,165.086909 C452.728885,164.725579 451.801495,164.544919 450.813855,164.544919 L450.813855,164.544919 Z M450.813855,176.288083 C449.537155,176.288083 448.447165,175.836428 447.543835,174.933099 C446.640511,174.029779 446.188855,172.939779 446.188855,171.663079 C446.188855,170.386389 446.640511,169.296389 447.543835,168.393059 C448.447165,167.489739 449.537155,167.038079 450.813855,167.038079 L450.813855,167.038079 C452.090555,167.038079 453.180545,167.489739 454.083875,168.393059 C454.987195,169.296389 455.438855,170.386389 455.438855,171.663079 C455.438855,172.939779 454.987195,174.029779 454.083875,174.933099 C453.180545,175.836428 452.090555,176.288083 450.813855,176.288083 L450.813855,176.288083 Z M459.883195,164.291989 C459.883195,164.749679 459.720595,165.141109 459.395395,165.466309 C459.070205,165.791499 458.678765,165.954099 458.221085,165.954099 C457.763395,165.954099 457.371965,165.791499 457.046765,165.466309 C456.721565,165.141109 456.558975,164.749679 456.558975,164.291989 C456.558975,163.834309 456.721565,163.442869 457.046765,163.117669 C457.371965,162.792479 457.763395,162.629879 458.221085,162.629879 C458.678765,162.629879 459.070205,162.792479 459.395395,163.117669 C459.720595,163.442869 459.883195,163.834309 459.883195,164.291989 Z M463.966195,162.593749 C463.604865,161.654289 463.074925,160.835289 462.376355,160.136719 C461.677785,159.438149 460.870825,158.908199 459.955455,158.546869 L459.919325,158.546869 C459.413465,158.354159 458.877495,158.197589 458.311415,158.077149 C457.745335,157.956699 457.161185,157.896479 456.558975,157.896479 L456.522835,157.896479 C455.800175,157.848309 455.137755,157.818199 454.535535,157.806149 C453.933315,157.794109 452.692775,157.788079 450.813855,157.788079 C448.934935,157.788079 447.694395,157.794109 447.092175,157.806149 C446.489959,157.818199 445.82753,157.848309 445.104871,157.896479 C444.502654,157.896479 443.912491,157.956699 443.334363,158.077149 C442.756235,158.197589 442.202204,158.354159 441.672253,158.546869 L441.744519,158.546869 C440.805061,158.908199 439.986059,159.438149 439.287488,160.136719 C438.588917,160.835289 438.058974,161.642249 437.697645,162.557619 L437.661512,162.593749 C437.468802,163.099609 437.318251,163.635579 437.209852,164.201659 C437.101453,164.767739 437.03521,165.351879 437.011121,165.954099 L437.011121,165.954099 C436.987032,166.700849 436.968966,167.369299 436.956922,167.959469 C436.944878,168.549639 436.938855,169.784169 436.938855,171.663079 C436.938855,173.566089 436.944878,174.812659 436.956922,175.402829 C436.968966,175.993002 436.987032,176.661452 437.011121,177.408201 C437.03521,177.986328 437.101453,178.558426 437.209852,179.124509 C437.318251,179.690593 437.468802,180.238602 437.661512,180.768552 C438.04693,181.70801 438.588917,182.527012 439.287488,183.225583 C439.986059,183.924155 440.780973,184.454097 441.672253,184.815427 L441.744519,184.815427 C442.226292,185.032225 442.750213,185.200843 443.316296,185.321286 C443.88238,185.44173 444.466521,185.513995 445.068738,185.538083 L445.104871,185.538083 C445.851619,185.562172 446.520069,185.580238 447.110245,185.592283 C447.700415,185.604327 448.934935,185.610349 450.813855,185.610349 C452.692775,185.610349 453.933315,185.604327 454.535535,185.592283 C455.137755,185.580238 455.812225,185.562172 456.558975,185.538083 C457.161185,185.513995 457.751355,185.447752 458.329475,185.339353 C458.907605,185.230954 459.461635,185.068358 459.991585,184.85156 L459.919325,184.887693 C460.858785,184.502274 461.677785,183.966309 462.376355,183.279783 C463.074925,182.593256 463.604865,181.79232 463.966195,180.876951 L463.966195,180.804685 C464.182995,180.274734 464.345595,179.726726 464.453995,179.160642 C464.562395,178.594558 464.616585,178.022461 464.616585,177.444333 C464.640675,176.697585 464.658745,176.029135 464.670785,175.438959 C464.682835,174.848789 464.688855,173.614269 464.688855,171.735349 C464.688855,169.856429 464.688855,168.615889 464.688855,168.013669 C464.688855,167.411449 464.664765,166.749029 464.616585,166.026369 C464.616585,165.400059 464.556365,164.791829 464.435925,164.201659 C464.315485,163.611489 464.146865,163.051429 463.930065,162.521479 L463.966195,162.593749 Z M462.087295,177.299802 C462.087295,177.757487 462.045135,178.209142 461.960825,178.654783 C461.876515,179.100423 461.750055,179.52799 461.581435,179.937497 L461.617565,179.901365 C461.376675,180.503581 461.027395,181.033524 460.569715,181.491208 C460.112025,181.948893 459.594135,182.286129 459.016005,182.502927 L458.979875,182.53906 C458.594455,182.683592 458.184955,182.798011 457.751355,182.882322 C457.317755,182.966632 456.872125,183.008787 456.414445,183.008787 L456.414445,183.008787 C455.667695,183.032875 455.011285,183.050941 454.445205,183.062986 C453.879115,183.07503 452.656635,183.081052 450.777725,183.081052 C448.898805,183.081052 447.676325,183.081052 447.110245,183.081052 C446.544158,183.081052 445.887752,183.056964 445.141003,183.008787 C444.65923,183.008787 444.201552,182.966632 443.767957,182.882322 C443.334361,182.798011 442.912815,182.671548 442.503308,182.502927 L442.539441,182.53906 C441.937224,182.298173 441.407282,181.948893 440.949597,181.491208 C440.491913,181.033524 440.142632,180.515625 439.901746,179.937497 L439.901746,179.901365 C439.757214,179.515946 439.642794,179.106445 439.558484,178.672849 C439.474174,178.239253 439.432019,177.79362 439.432019,177.335935 L439.432019,177.299802 C439.383842,176.577142 439.359753,175.926758 439.359753,175.348629 C439.359753,174.770499 439.359753,173.554039 439.359753,171.699219 C439.359753,169.820299 439.359753,168.597819 439.359753,168.031739 C439.359753,167.465649 439.383842,166.809249 439.432019,166.062499 C439.432019,165.580729 439.474174,165.117029 439.558484,164.671389 C439.642794,164.225739 439.769258,163.798179 439.937878,163.388669 L439.901746,163.460939 C440.142632,162.834629 440.491913,162.292639 440.949597,161.834959 C441.407282,161.377269 441.937224,161.040039 442.539441,160.823239 C442.92486,160.678709 443.334361,160.564289 443.767957,160.479979 C444.201552,160.395669 444.65923,160.341469 445.141003,160.317379 L445.141003,160.317379 C445.863663,160.293289 446.514047,160.275229 447.092175,160.263179 C447.670305,160.251139 448.898805,160.245119 450.777725,160.245119 C452.656635,160.245119 453.879115,160.251139 454.445205,160.263179 C455.011285,160.275229 455.667695,160.293289 456.414445,160.317379 C456.872125,160.341469 457.317755,160.395669 457.751355,160.479979 C458.184955,160.564289 458.606495,160.678709 459.016005,160.823239 L458.979875,160.823239 C459.582085,161.064129 460.112025,161.407389 460.569715,161.853029 C461.027395,162.298669 461.376675,162.822589 461.617565,163.424799 L461.617565,163.460939 C461.762095,163.822269 461.876515,164.225739 461.960825,164.671389 C462.045135,165.117029 462.087295,165.568679 462.087295,166.026369 L462.087295,166.026369 C462.111385,166.749029 462.129445,167.399409 462.141495,167.977539 C462.153535,168.555669 462.159555,169.784169 462.159555,171.663079 C462.159555,173.541999 462.159555,174.764479 462.159555,175.330559 C462.159555,175.896647 462.147515,176.553054 462.123425,177.299802 L462.087295,177.299802 Z" id="Fill-1"></path>
            </g>
        </g>
    </g>
</svg>