<?xml version="1.0" encoding="UTF-8"?>
<svg width="142px" height="36px" viewBox="0 0 142 36" version="1.1" xmlns="http://www.w3.org/2000/svg" xmlns:xlink="http://www.w3.org/1999/xlink">
    <title>Leamo-Logo</title>
    <g id="Page-1" stroke="none" stroke-width="1" fill="none" fill-rule="evenodd">
        <g id="mbiile-accueil" transform="translate(-15.000000, -5784.000000)" fill="#FFFFFF" fill-rule="nonzero">
            <g id="footer" transform="translate(-7.500000, 5198.902738)">
                <g id="Leamo-Logo" transform="translate(23.011348, 585.791786)">
                    <path d="M123.782663,27.6105844 C122.852729,26.2579532 122.396216,24.27973 122.396216,21.6928229 C122.396216,19.1397315 122.869637,17.1784162 123.816478,15.8426929 C124.76332,14.5069696 126.183583,13.830654 128.111082,13.830654 C130.021674,13.830654 131.458845,14.5069696 132.405686,15.8426929 C133.352528,17.1784162 133.825949,19.1397315 133.825949,21.6928229 C133.825949,24.2459142 133.352528,26.2241374 132.405686,27.5936765 C131.458845,28.9632155 130.038582,29.656439 128.111082,29.656439 C126.149767,29.6395311 124.695689,28.9632155 123.782663,27.6105844 M133.318713,34.1032141 C134.891146,33.4945301 136.22687,32.6153198 137.325882,31.4655833 C138.424895,30.3158467 139.27029,28.9124919 139.862066,27.2724266 C140.453842,25.6323612 140.741276,23.7555854 140.741276,21.675915 C140.741276,19.6300603 140.453842,17.7871003 139.878974,16.130127 C139.304106,14.4900617 138.458711,13.0867069 137.359698,11.9538782 C136.260685,10.8210496 134.924962,9.94183931 133.352528,9.33315527 C131.780095,8.72447123 130.021674,8.42012921 128.077267,8.42012921 C126.166675,8.42012921 124.408255,8.72447123 122.852729,9.33315527 C121.280295,9.94183931 119.944572,10.8210496 118.845559,11.9538782 C117.746546,13.0867069 116.901151,14.4731538 116.309375,16.130127 C115.717599,17.7701924 115.430165,19.6300603 115.430165,21.675915 C115.430165,25.9536111 116.529178,29.2506497 118.744111,31.5501227 C120.959045,33.8495958 124.070097,34.9993323 128.094175,34.9993323 C130.004766,35.0162402 131.763187,34.7118981 133.318713,34.1032141 M76.237676,34.2553851 L82.9501083,34.2553851 L82.9501083,19.1904551 C82.9501083,18.4634159 83.0853714,17.7701924 83.3558976,17.1446004 C83.6264239,16.5190085 83.9814896,15.977956 84.4380026,15.5383509 C84.9790551,14.9972984 85.5370154,14.6084169 86.0949758,14.3886144 C86.6529362,14.1688118 87.2785281,14.0504566 87.9379358,14.0504566 C88.3606331,14.0504566 88.7495145,14.1180881 89.138396,14.2364434 C89.5272775,14.3717065 89.8485274,14.5915091 90.1190536,14.912759 C90.3895799,15.2340089 90.6093824,15.673614 90.7615535,16.2315744 C90.9137245,16.7895348 90.9982639,17.516574 90.9982639,18.4126922 L90.9982639,34.2553851 L97.7106962,34.2553851 L97.7106962,18.903021 C97.7106962,18.2605212 97.8459594,17.6518371 98.1164856,17.0769689 C98.3870118,16.5021006 98.7420775,15.9948639 99.1985906,15.5383509 C99.739643,14.9972984 100.297603,14.6084169 100.855564,14.3886144 C101.413524,14.1688118 102.039116,14.0504566 102.698524,14.0504566 C103.121221,14.0504566 103.510103,14.1180881 103.898984,14.2364434 C104.287865,14.3717065 104.609115,14.5915091 104.879642,14.912759 C105.150168,15.2340089 105.36997,15.673614 105.522141,16.2315744 C105.674312,16.7895348 105.758852,17.516574 105.758852,18.4126922 L105.758852,34.2553851 L112.471284,34.2553851 L112.471284,17.516574 C112.471284,14.3209828 111.828784,12.0046019 110.526877,10.5843391 C109.224969,9.16407637 107.280562,8.45394499 104.693655,8.45394499 C103.155037,8.45394499 101.751682,8.79210279 100.466682,9.46841839 C99.1816827,10.144734 97.9643146,11.2437468 96.8145781,12.7823648 C96.3411572,11.37901 95.5126705,10.296905 94.362934,9.56986573 C93.2131975,8.84282646 91.7253032,8.47085288 89.8992511,8.47085288 C88.529712,8.47085288 87.2108966,8.80901068 85.9597127,9.48532628 C84.7085288,10.1616419 83.6264239,11.1930232 82.6964899,12.596378 L82.6964899,9.21480004 L76.1700444,9.21480004 L76.1700444,34.2553851 L76.237676,34.2553851 Z M65.9745867,24.3642695 C65.9745867,25.3956508 65.7885999,26.2410453 65.3997185,26.9342688 C65.010837,27.6274922 64.5205082,28.1854526 63.9118242,28.6419656 C62.8297192,29.4366365 61.4094564,29.8424258 59.6848517,29.8424258 C58.6534704,29.8424258 57.8587995,29.6057154 57.2839313,29.1153866 C56.709063,28.6419656 56.4216289,27.9825579 56.4216289,27.1540713 C56.4216289,26.6130188 56.5061683,26.12269 56.6583393,25.666177 C56.8105104,25.2265719 57.1317603,24.8207825 57.5882733,24.4826247 C58.0447863,24.1444669 58.7211019,23.8739407 59.5834043,23.6372302 C60.4457067,23.4174276 61.5785353,23.2652566 62.9818902,23.1976251 L65.9576788,23.0454541 L65.9576788,24.3642695 L65.9745867,24.3642695 Z M66.1098499,34.2553851 L72.4503086,34.2553851 L72.4503086,18.4296001 C72.4503086,16.8909821 72.2643218,15.5045351 71.8923482,14.287167 C71.5203746,13.0528911 70.9285985,12.0046019 70.1170198,11.1422995 C69.3054411,10.2799971 68.2233361,9.6205894 66.8707049,9.14716848 C65.5349816,8.69065545 63.8949163,8.45394499 61.9843247,8.45394499 C58.856365,8.45394499 56.3539973,9.04572114 54.4941294,10.2123656 C52.6342615,11.37901 51.484525,13.2726936 51.0449199,15.8934166 L57.1824839,16.4682848 C57.5713654,14.4562459 59.0930755,13.4417725 61.7476142,13.4417725 C62.8973508,13.4417725 63.8949163,13.7292067 64.7403108,14.3040749 C65.5857053,14.8789432 66.0084025,15.9272324 66.0084025,17.4658504 L66.0084025,18.7170342 L62.7959034,18.8692052 C61.1896539,18.9368368 59.6172201,19.0890078 58.0786021,19.3426261 C56.5230762,19.5962445 55.1366293,20.0358496 53.8854454,20.6445337 C52.6342615,21.2532177 51.636696,22.0986122 50.8589331,23.1807172 C50.098078,24.2628221 49.7091966,25.6830849 49.7091966,27.4076897 C49.7091966,28.7265051 49.9289991,29.8424258 50.3855122,30.7892677 C50.8251173,31.7361095 51.4338013,32.5138724 52.1777485,33.1225565 C52.9216957,33.7312405 53.8009059,34.1708457 54.8153793,34.4582798 C55.8298527,34.7457139 56.8781419,34.8978849 58.0109705,34.8978849 C59.9553779,34.8978849 61.5447196,34.5428192 62.7789955,33.8495958 C64.0132715,33.1394644 65.1291922,32.2433462 66.1098499,31.1105176 L66.1098499,34.2553851 L66.1098499,34.2553851 Z M30.8568992,18.9537447 C30.890715,18.1928896 31.0259781,17.4827582 31.2965044,16.8233505 C31.5501227,16.1639428 31.9051884,15.5890746 32.3786093,15.0987458 C32.8351224,14.6084169 33.4099906,14.2195355 34.0863062,13.9151935 C34.7626218,13.6277593 35.5403848,13.4755883 36.4365029,13.4755883 C38.2287393,13.4755883 39.5475547,13.9490092 40.3929492,14.912759 C41.2383437,15.8765087 41.6610409,17.212232 41.6610409,18.9368368 L30.8568992,18.9368368 L30.8568992,18.9537447 Z M41.3059752,26.4270321 C40.8325543,28.6588735 39.2601206,29.7917022 36.6055818,29.7917022 C34.6949903,29.7917022 33.2409117,29.2168339 32.2940699,28.0840053 C31.3303201,26.9511766 30.8230834,25.3787429 30.7554519,23.366704 L48.1198549,23.366704 L48.1198549,20.6783495 C48.1198549,16.9417058 47.1561052,13.9659171 45.2116978,11.7509835 C43.2841984,9.53604995 40.3929492,8.4370371 36.5548582,8.4370371 C34.6949903,8.4370371 33.0042013,8.74137912 31.4655833,9.31624738 C29.9269653,9.90802353 28.6081499,10.7872338 27.509137,11.9369703 C26.4101242,13.0867069 25.5478218,14.4900617 24.9391377,16.130127 C24.3304537,17.7701924 24.0261117,19.6638761 24.0261117,21.7604544 C24.0261117,25.9874269 25.0744009,29.2506497 27.1709792,31.5501227 C29.2675576,33.8495958 32.3955172,34.9993323 36.5548582,34.9993323 C40.0040677,34.9993323 42.6416985,34.272293 44.4508428,32.8182145 C46.259987,31.3641359 47.3759077,29.2337418 47.8324208,26.4101242 L41.3059752,26.4101242 L41.3059752,26.4270321 Z M0,34.2553851 L22.588941,34.2553851 L23.3497961,28.117821 L7.15203746,28.117821 L7.15203746,-3.55271368e-15 L0,-3.55271368e-15 L0,34.2553851 Z" id="Shape"></path>
                </g>
            </g>
        </g>
    </g>
</svg>