<?xml version="1.0" encoding="UTF-8"?>
<svg width="31px" height="32px" viewBox="0 0 31 32" version="1.1" xmlns="http://www.w3.org/2000/svg" xmlns:xlink="http://www.w3.org/1999/xlink">
    <title>Fill 1</title>
    <g id="Page-1" stroke="none" stroke-width="1" fill="none" fill-rule="evenodd">
        <g id="page-accueil" transform="translate(-373.000000, -5321.000000)" fill="#FFFFFF">
            <g id="footer" transform="translate(-3.500000, 5164.000000)">
                <path d="M391.92871,157.67969 C389.80891,157.67969 387.80958,158.07714 385.930664,158.87207 C384.051748,159.69108 382.413744,160.79312 381.016602,162.17822 C379.619459,163.56332 378.523441,165.1953 377.728516,167.07422 C376.909501,168.95313 376.5,170.95246 376.5,173.07226 C376.5,174.99936 376.837236,176.81802 377.511719,178.528318 C378.186201,180.262701 379.101557,181.804353 380.257812,183.153318 C381.414068,184.502283 382.787101,185.622389 384.376953,186.513669 C385.966805,187.429038 387.67707,188.031246 389.50781,188.32031 L389.50781,177.55273 L385.605469,177.55273 L385.605469,173.07226 L389.50781,173.07226 L389.50781,169.67578 C389.50781,167.74869 390.03776,166.26726 391.09766,165.23144 C392.15756,164.19563 393.57877,163.67773 395.36133,163.67773 C396.20443,163.67773 396.9873,163.73193 397.70996,163.84033 C398.43262,163.94873 398.79395,164.00293 398.79395,164.00293 L398.79395,167.76074 L396.84277,167.76074 C395.87923,167.76074 395.22282,168.01367 394.87354,168.51953 C394.52425,169.02539 394.34961,169.57942 394.34961,170.18164 L394.34961,173.07226 L398.61328,173.07226 L397.92676,177.55273 L394.34961,177.55273 L394.34961,188.32031 C396.18035,188.031246 397.89062,187.429038 399.48047,186.513669 C401.07032,185.622389 402.44938,184.502283 403.61768,183.153318 C404.78598,181.804353 405.69531,180.262701 406.3457,178.528318 C407.02019,176.81802 407.35742,174.99936 407.35742,173.07226 C407.35742,170.95246 406.94792,168.95313 406.12891,167.07422 C405.33398,165.1953 404.23796,163.56332 402.84082,162.17822 C401.44368,160.79312 399.80567,159.69108 397.92676,158.87207 C396.04784,158.07714 394.04851,157.67969 391.92871,157.67969 Z" id="Fill-1"></path>
            </g>
        </g>
    </g>
</svg>